<?xml version="1.0" encoding="UTF-8"?>
<svg width="18px" height="18px" viewBox="0 0 18 18" version="1.1" xmlns="http://www.w3.org/2000/svg" xmlns:xlink="http://www.w3.org/1999/xlink">
    <!-- Generator: Sketch 46.2 (44496) - http://www.bohemiancoding.com/sketch -->
    <title>ic/18/copy</title>
    <desc>Created with Sketch.</desc>
    <defs>
        <path d="M12,0.75 L3,0.75 C2.175,0.75 1.5,1.425 1.5,2.25 L1.5,12.75 L3,12.75 L3,2.25 L12,2.25 L12,0.75 Z M14.25,3.75 L6,3.75 C5.175,3.75 4.5,4.425 4.5,5.25 L4.5,15.75 C4.5,16.575 5.175,17.25 6,17.25 L14.25,17.25 C15.075,17.25 15.75,16.575 15.75,15.75 L15.75,5.25 C15.75,4.425 15.075,3.75 14.25,3.75 Z M14.25,15.75 L6,15.75 L6,5.25 L14.25,5.25 L14.25,15.75 Z" id="path-1"></path>
    </defs>
    <g id="Symbols" stroke="none" stroke-width="1" fill="none" fill-rule="evenodd">
        <g id="ic/18/copy">
            <mask id="mask-2" fill="white">
                <use xlink:href="#path-1"></use>
            </mask>
            <use id="Shape" fill="#FFFFFF" fill-rule="nonzero" xlink:href="#path-1"></use>
        </g>
    </g>
</svg>