<?xml version="1.0" encoding="UTF-8"?>
<svg width="18px" height="18px" viewBox="0 0 18 18" version="1.1" xmlns="http://www.w3.org/2000/svg" xmlns:xlink="http://www.w3.org/1999/xlink">
    <!-- Generator: Sketch 46.2 (44496) - http://www.bohemiancoding.com/sketch -->
    <title>ic/18/info</title>
    <desc>Created with Sketch.</desc>
    <defs>
        <path d="M9,1.5 C4.86,1.5 1.5,4.86 1.5,9 C1.5,13.14 4.86,16.5 9,16.5 C13.14,16.5 16.5,13.14 16.5,9 C16.5,4.86 13.14,1.5 9,1.5 Z M10.9550781,12.2324219 L10.8261719,12.7597656 C10.4394512,12.9121101 10.1308605,13.0283199 9.90039062,13.1083984 C9.66992072,13.188477 9.40234527,13.2285156 9.09765625,13.2285156 C8.62890391,13.2285156 8.26464974,13.114259 8.00488281,12.8857422 C7.74511589,12.6572254 7.61523438,12.3671893 7.61523438,12.015625 C7.61523438,11.8789056 7.6249999,11.7392585 7.64453125,11.5966797 C7.6640626,11.4541008 7.69531229,11.2929696 7.73828125,11.1132812 L8.21875,9.40234375 C8.26171896,9.23828043 8.29785142,9.08300854 8.32714844,8.93652344 C8.35644546,8.79003833 8.37109375,8.65625061 8.37109375,8.53515625 C8.37109375,8.31640516 8.32617232,8.16406293 8.23632812,8.078125 C8.14648393,7.99218707 7.97461064,7.94921875 7.72070312,7.94921875 C7.5957025,7.94921875 7.46777409,7.9687498 7.33691406,8.0078125 C7.20605403,8.0468752 7.09375047,8.0839842 7,8.11914062 L7.12890625,7.59179688 C7.44531408,7.46288998 7.74804543,7.35253952 8.03710938,7.26074219 C8.32617332,7.16894485 8.59960809,7.12304688 8.85742188,7.12304688 C9.32226795,7.12304688 9.6806628,7.23535044 9.93261719,7.45996094 C10.1845716,7.68457144 10.3105469,7.9765607 10.3105469,8.3359375 C10.3105469,8.41015662 10.3017579,8.54101469 10.2841797,8.72851562 C10.2666015,8.91601656 10.2343752,9.08788984 10.1875,9.24414062 L9.70703125,10.9492188 C9.66796855,11.0859382 9.63281266,11.2421866 9.6015625,11.4179688 C9.57031234,11.5937509 9.5546875,11.7265621 9.5546875,11.8164062 C9.5546875,12.0429699 9.60546824,12.1972652 9.70703125,12.2792969 C9.80859426,12.3613285 9.98437375,12.4023438 10.234375,12.4023438 C10.3515631,12.4023438 10.4843743,12.3818361 10.6328125,12.3408203 C10.7812507,12.2998045 10.8886715,12.263672 10.9550781,12.2324219 Z M11.078125,5.078125 C11.078125,5.37500148 10.9658214,5.62792864 10.7412109,5.83691406 C10.5166004,6.04589948 10.2460953,6.15039062 9.9296875,6.15039062 C9.61327967,6.15039062 9.34179801,6.04589948 9.11523438,5.83691406 C8.88867074,5.62792864 8.77539062,5.37500148 8.77539062,5.078125 C8.77539062,4.78124852 8.88867074,4.5273448 9.11523438,4.31640625 C9.34179801,4.1054677 9.61327967,4 9.9296875,4 C10.2460953,4 10.5166004,4.1054677 10.7412109,4.31640625 C10.9658214,4.5273448 11.078125,4.78124852 11.078125,5.078125 Z" id="path-1"></path>
    </defs>
    <g id="Symbols" stroke="none" stroke-width="1" fill="none" fill-rule="evenodd">
        <g id="ic/18/info">
            <mask id="mask-2" fill="white">
                <use xlink:href="#path-1"></use>
            </mask>
            <use id="Shape" fill="#FFFFFF" fill-rule="nonzero" xlink:href="#path-1"></use>
        </g>
    </g>
</svg>