<?xml version="1.0" encoding="UTF-8"?>
<svg width="18px" height="18px" viewBox="0 0 18 18" version="1.1" xmlns="http://www.w3.org/2000/svg" xmlns:xlink="http://www.w3.org/1999/xlink">
    <!-- Generator: Sketch 46.2 (44496) - http://www.bohemiancoding.com/sketch -->
    <title>ic/18/phone</title>
    <desc>Created with Sketch.</desc>
    <defs>
        <path d="M4.965,8.0925 C6.045,10.215 7.785,11.9475 9.9075,13.035 L11.5575,11.385 C11.76,11.1825 12.06,11.115 12.3225,11.205 C13.1625,11.4825 14.07,11.6325 15,11.6325 C15.4125,11.6325 15.75,11.97 15.75,12.3825 L15.75,15 C15.75,15.4125 15.4125,15.75 15,15.75 C7.9575,15.75 2.25,10.0425 2.25,3 C2.25,2.5875 2.5875,2.25 3,2.25 L5.625,2.25 C6.0375,2.25 6.375,2.5875 6.375,3 C6.375,3.9375 6.525,4.8375 6.8025,5.6775 C6.885,5.94 6.825,6.2325 6.615,6.4425 L4.965,8.0925 Z" id="path-1"></path>
    </defs>
    <g id="Symbols" stroke="none" stroke-width="1" fill="none" fill-rule="evenodd">
        <g id="ic/18/phone">
            <mask id="mask-2" fill="white">
                <use xlink:href="#path-1"></use>
            </mask>
            <use id="Shape" fill="#FFFFFF" fill-rule="nonzero" xlink:href="#path-1"></use>
        </g>
    </g>
</svg>