<?xml version="1.0" encoding="UTF-8"?>
<svg width="24px" height="24px" viewBox="0 0 24 24" version="1.1" xmlns="http://www.w3.org/2000/svg" xmlns:xlink="http://www.w3.org/1999/xlink">
    <!-- Generator: Sketch 46.2 (44496) - http://www.bohemiancoding.com/sketch -->
    <title>ic/24/euro</title>
    <desc>Created with Sketch.</desc>
    <defs>
        <path d="M14.3333333,17.0555556 C12.3811111,17.0555556 10.6933333,15.9511111 9.85333333,14.3333333 L14.3333333,14.3333333 L14.3333333,12.7777778 L9.34,12.7777778 C9.30111111,12.5211111 9.27777778,12.2644444 9.27777778,12 C9.27777778,11.7355556 9.30111111,11.4788889 9.34,11.2222222 L14.3333333,11.2222222 L14.3333333,9.66666667 L9.85333333,9.66666667 C10.6933333,8.04888889 12.3888889,6.94444444 14.3333333,6.94444444 C15.5855556,6.94444444 16.7366667,7.40333333 17.6233333,8.16555556 L19,6.78888889 C17.7633333,5.67666667 16.1222222,5 14.3333333,5 C11.2844444,5 8.70222222,6.95222222 7.73777778,9.66666667 L5,9.66666667 L5,11.2222222 L7.38,11.2222222 C7.34888889,11.4788889 7.33333333,11.7355556 7.33333333,12 C7.33333333,12.2644444 7.34888889,12.5211111 7.38,12.7777778 L5,12.7777778 L5,14.3333333 L7.73777778,14.3333333 C8.70222222,17.0477778 11.2844444,19 14.3333333,19 C16.13,19 17.7633333,18.3233333 19,17.2111111 L17.6155556,15.8344444 C16.7366667,16.5966667 15.5933333,17.0555556 14.3333333,17.0555556 Z" id="path-1"></path>
    </defs>
    <g id="Symbols" stroke="none" stroke-width="1" fill="none" fill-rule="evenodd">
        <g id="ic/24/euro">
            <mask id="mask-2" fill="white">
                <use xlink:href="#path-1"></use>
            </mask>
            <use id="Shape" fill="#FFFFFF" fill-rule="nonzero" xlink:href="#path-1"></use>
        </g>
    </g>
</svg>