<?xml version="1.0" encoding="UTF-8"?>
<svg width="24px" height="24px" viewBox="0 0 24 24" version="1.1" xmlns="http://www.w3.org/2000/svg" xmlns:xlink="http://www.w3.org/1999/xlink">
    <!-- Generator: Sketch 46.2 (44496) - http://www.bohemiancoding.com/sketch -->
    <title>ic/24/get_in_touch</title>
    <desc>Created with Sketch.</desc>
    <defs>
        <path d="M20,8 L4,8 L4,6 L20,6 L20,8 Z M18,2 L6,2 L6,4 L18,4 L18,2 Z M22,12 L22,20 C22,21.1 21.1,22 20,22 L4,22 C2.9,22 2,21.1 2,20 L2,12 C2,10.9 2.9,10 4,10 L20,10 C21.1,10 22,10.9 22,12 Z M16,16 L10,12.73 L10,19.26 L16,16 Z" id="path-1"></path>
    </defs>
    <g id="Symbols" stroke="none" stroke-width="1" fill="none" fill-rule="evenodd">
        <g id="ic/24/get_in_touch">
            <mask id="mask-2" fill="white">
                <use xlink:href="#path-1"></use>
            </mask>
            <use id="Shape" fill="#FFFFFF" fill-rule="nonzero" xlink:href="#path-1"></use>
        </g>
    </g>
</svg>