<?xml version="1.0" encoding="UTF-8"?>
<svg width="24px" height="24px" viewBox="0 0 24 24" version="1.1" xmlns="http://www.w3.org/2000/svg" xmlns:xlink="http://www.w3.org/1999/xlink">
    <!-- Generator: Sketch 46.2 (44496) - http://www.bohemiancoding.com/sketch -->
    <title>ic/24/logout</title>
    <desc>Created with Sketch.</desc>
    <defs>
        <path d="M12,2 C6.4766,2 2,6.4766 2,12 C2,17.5234 6.4766,22 12,22 C17.5226,22 22,17.5234 22,12 C22,6.4766 17.5234,2 12,2 Z M11.21876,6.9172 C11.2203224,6.59924 11.415636,6.3133 11.71172,6.19688 C12.00782,6.079692 12.34532,6.154692 12.56406,6.385942 C12.698436,6.518754 12.775,6.699222 12.77578,6.889062 L12.77578,7.234382 C12.77578,8.975002 12.778905,10.773382 12.77578,12.543782 C12.77578,12.948462 12.41796,13.289102 11.99766,13.289102 C11.58048,13.289102 11.22578,12.948482 11.22266,12.542222 C11.2179726,11.878162 11.219535,11.206282 11.2203162,10.553162 L11.2203162,9.716442 L11.2203162,9.500042 L11.2203162,8.917222 C11.2187538,8.264882 11.21641,7.579722 11.2187538,6.917222 L11.21876,6.9172 Z M13.0211,17.7602 C11.56876,18.03598 10.0657,17.720356 8.8469,16.88364 C7.62814,16.04692 6.7937,14.75784 6.5289,13.30244 C6.19766,11.43526 6.7039,9.77744 8.03514,8.37664 C8.184358,8.21414 8.3953,8.1204 8.6156,8.11804 C8.813256,8.1188212 9.00232,8.196164 9.14372,8.3321 C9.298408,8.475068 9.38826,8.67272 9.39528,8.8821 L9.39528,8.8828812 C9.3984052,9.0946012 9.316374,9.2985012 9.16716,9.4500612 C8.55232,10.0891212 8.1734,10.8375612 8.04216,11.6766612 C7.844504,13.0930612 8.41716,14.5070612 9.54528,15.3868612 C10.6734,16.2657612 12.18428,16.4767012 13.51008,15.9399812 C14.83586,15.4032612 15.77408,14.1993612 15.97188,12.7829812 C16.120318,11.5251612 15.74844,10.4205812 14.86876,9.4969812 C14.62422,9.2407412 14.5508,8.9798012 14.63908,8.6782212 L14.63908,8.6790024 C14.715642,8.4157224 14.9258,8.2126024 15.19064,8.1446224 C15.45626,8.0766544 15.73752,8.1539974 15.93126,8.3477424 C16.88672,9.3133624 17.42892,10.4859424 17.5422,11.8321424 C17.5515748,11.9376104 17.5578248,12.0462024 17.563294,12.1516824 C17.566419,12.2001204 17.5687628,12.2477764 17.5718878,12.2962144 C17.5507938,15.0048144 15.6812678,17.2516144 13.0210878,17.7602144 L13.0211,17.7602 Z" id="path-1"></path>
    </defs>
    <g id="Symbols" stroke="none" stroke-width="1" fill="none" fill-rule="evenodd">
        <g id="ic/24/logout">
            <mask id="mask-2" fill="white">
                <use xlink:href="#path-1"></use>
            </mask>
            <use id="Shape" fill="#FFFFFF" fill-rule="nonzero" xlink:href="#path-1"></use>
        </g>
    </g>
</svg>