<?xml version="1.0" encoding="UTF-8"?>
<svg width="24px" height="24px" viewBox="0 0 24 24" version="1.1" xmlns="http://www.w3.org/2000/svg" xmlns:xlink="http://www.w3.org/1999/xlink">
    <!-- Generator: Sketch 46.2 (44496) - http://www.bohemiancoding.com/sketch -->
    <title>ic/24/money_out</title>
    <desc>Created with Sketch.</desc>
    <defs>
        <path d="M6.34327273,7.39781818 C6.74100364,7.00008727 7.38530909,7.00008727 7.78304,7.39781818 C8.18077091,7.79554909 8.18077091,8.43985455 7.78304,8.83758545 C5.45463273,11.1671273 5.45463273,14.9420218 7.78304,17.2716218 C10.1125818,19.6000291 13.8874764,19.6000291 16.2170764,17.2716218 C18.5454836,14.94208 18.5454836,11.1671855 16.2170764,8.83758545 C15.8193455,8.43985455 15.8193455,7.79554909 16.2170764,7.39781818 C16.6148073,7.00008727 17.2591127,7.00008727 17.6568436,7.39781818 C20.7806255,10.5216 20.7806255,15.5874909 17.6568436,18.7115636 C14.5330618,21.8353455 9.46717091,21.8353455 6.34309818,18.7115636 C3.21931636,15.5877818 3.21931636,10.5218909 6.34309818,7.39781818 L6.34327273,7.39781818 Z M8.48872727,4.23478855 C7.66827636,5.05750855 8.89896727,6.29273764 9.71941818,5.47001764 L10.7182836,4.46434492 C10.9455564,4.23593473 11.1296582,4.31093692 11.1296582,4.63252528 L11.1296582,12.1621253 C11.1296582,12.6427944 11.5194182,13.033718 12.0001164,13.033718 C12.4796509,13.033718 12.8705745,12.643958 12.8705745,12.1621253 L12.8705745,4.63252528 C12.8705745,4.31092528 13.0546647,4.23592892 13.2819491,4.46434492 L14.2808145,5.47001764 C15.1012655,6.29273764 16.3319564,5.05750855 15.5115055,4.23478855 L12.6251345,1.26198855 C12.2876218,0.914264916 11.7421673,0.913130371 11.4058182,1.2574431 L8.48872727,4.23478855 Z" id="path-1"></path>
    </defs>
    <g id="Symbols" stroke="none" stroke-width="1" fill="none" fill-rule="evenodd">
        <g id="ic/24/money_out">
            <mask id="mask-2" fill="white">
                <use xlink:href="#path-1"></use>
            </mask>
            <use id="Shape" fill="#FFFFFF" fill-rule="nonzero" xlink:href="#path-1"></use>
        </g>
    </g>
</svg>